<svg width="191.5mm" height="290.7mm" version="1.1" viewBox="0 0 191.5 290.7" xmlns="http://www.w3.org/2000/svg">
	<g transform="translate(-74.64 -24.64)">
		<g style="fill-opacity:0">
			<path d="m96.09 97.5c-3.192-2e-3 -5.677 3.576-4.663 6.579 0.7309 2.801 4.17 4.539 6.819 3.253 2.616-1.107 3.87-4.561 2.48-7.063-0.8569-1.699-2.719-2.863-4.637-2.769z" style="fill-opacity:0;stroke-linejoin:round;stroke-width:.6;stroke:#000"/>
			<path d="m96.11 98.55c-2.659 5e-3 -4.621 3.144-3.557 5.56 0.7863 2.161 3.627 3.319 5.627 2.062 1.98-1.098 2.704-3.926 1.388-5.798-0.7375-1.145-2.084-1.9-3.458-1.824z" style="fill-opacity:0;stroke-linejoin:round;stroke-width:.7;stroke:#000"/>
		</g>
		<g style="fill-opacity:0">
			<path d="m96.23 80.12c-2.177 0.0093-4.02 2.098-3.847 4.291 0.03885 1.955 1.758 3.73 3.649 3.832 1.326 0.08718 2.473-0.4047 3.338-1.408 1.55-1.751 1.15-4.761-0.8125-6.033-0.6588-0.4528-1.491-0.7111-2.328-0.6816z" style="fill-opacity:0;stroke-linejoin:round;stroke-width:.7;stroke:#000"/>
			<path d="m95.92 79.08c-3.143 0.1896-5.434 3.765-4.366 6.712 0.7992 2.637 3.974 4.289 6.56 3.202 2.555-0.9216 3.942-4.06 2.95-6.581-0.7208-2.102-2.927-3.54-5.144-3.332z" style="fill-opacity:0;stroke-linejoin:round;stroke-width:.6;stroke:#000"/>
		</g>
		<g style="fill-opacity:0">
			<path d="m96.13 61.51c-2.079 0.01548-3.87 1.913-3.852 4.014-0.0703 1.671 1.101 3.35 2.608 3.873 0.8486 0.3298 1.947 0.3479 2.875-0.05664 0.8531-0.3305 1.803-1.216 2.164-2.205 0.9083-2.077-0.2646-4.763-2.449-5.43-0.4319-0.1457-0.8905-0.2077-1.346-0.1953z" style="fill-opacity:0;stroke-linejoin:round;stroke-width:.7;stroke:#000"/>
			<path d="m96.1 60.45c-3.179-9.67e-4 -5.65 3.524-4.691 6.527 0.6825 2.613 3.668 4.377 6.272 3.519 2.81-0.789 4.444-4.255 3.208-6.914-0.7528-1.896-2.737-3.235-4.788-3.133z" style="fill-opacity:0;stroke-linejoin:round;stroke-width:.6;stroke:#000"/>
		</g>
		<g style="fill-opacity:0">
			<path d="m167.9 40.03c-12.32 0.6401-24.27 6.683-31.98 16.33-8.13 9.971-11.56 23.61-9.009 36.23 2.09 10.73 8.267 20.62 17.11 27.07 8.532 6.311 19.37 9.417 29.95 8.489 12.67-1.04 24.76-7.821 32.12-18.21 6.452-8.946 9.431-20.35 7.985-31.3-1.362-10.96-6.98-21.35-15.5-28.4-8.1-6.762-18.66-10.52-29.22-10.26-0.4844 0.01448-0.9688 0.03144-1.453 0.04687z" style="fill-opacity:0;stroke-linejoin:round;stroke-width:.7;stroke:#000"/>
			<ellipse cx="170.2" cy="84.47" rx="37.4" ry="38.33" style="fill-opacity:0;stroke-linejoin:round;stroke-width:.7;stroke:#000"/>
			<circle cx="170.1" cy="51.79" r="4.299" style="fill-opacity:0;stroke-linejoin:round;stroke-width:.7;stroke:#000"/>
			<path d="m169.4 41.57c-6.319 0.09801-12.73 1.739-18.36 4.602-6.775 3.403-12.58 8.627-16.65 15.05-5.27 8.258-7.624 18.42-6.383 28.06 1.316 10.87 6.927 21.08 15.47 27.93 5.787 4.714 12.84 7.811 20.24 8.972 9.191 1.497 18.92-0.2583 27.13-4.799 6.763-3.702 12.54-9.356 16.36-16.1 2.455-4.287 4.153-9.018 5-13.82 1.318-7.436 0.5934-15.03-2.013-22.11-2.602-7.109-7.203-13.54-13.13-18.32-5.856-4.752-13.01-7.905-20.44-9.015-2.334-0.3525-4.823-0.5113-7.228-0.4678z" style="fill-opacity:0;stroke-linejoin:round;stroke-width:.7;stroke:#000"/>
		</g>
		<g style="fill-opacity:0">
			<rect x="90.74" y="141" width="50.56" height="50.61" rx="3.77" ry="4.134" style="fill-opacity:0;stroke-linejoin:round;stroke-width:.6;stroke:#000"/>
			<rect x="94.11" y="144.1" width="44.14" height="44.19" rx="2.465" ry="2.42" style="fill-opacity:0;stroke-linejoin:round;stroke-width:.6;stroke:#000"/>
			<rect x="91.94" y="142.2" width="48.07" height="48.03" rx="3.817" ry="4.023" style="fill-opacity:0;stroke-linejoin:round;stroke-width:.4;stroke:#000"/>
			<circle cx="137.3" cy="141" r=".007764" style="fill-opacity:0;stroke-width:.2646;stroke:#000"/>
			<circle cx="137.6" cy="141" r=".007764" style="fill-opacity:0;stroke-width:.2646;stroke:#000"/>
			<path d="m137.5 141s-0.9591-0.0315-1.124 1.229c-0.1654 1.26-0.1654 2.017-0.1654 2.017" style="fill-opacity:0;stroke-width:.3904;stroke:#000"/>
			<path d="m141.3 144.9s0.0316 0.9591-1.232 1.124c-1.264 0.1654-2.022 0.1654-2.022 0.1654" style="fill-opacity:0;stroke-width:.3909;stroke:#000"/>
			<path d="m94.73 141s0.9591-0.0321 1.124 1.25c0.1654 1.282 0.1654 2.051 0.1654 2.051" style="fill-opacity:0;stroke-width:.3938;stroke:#000"/>
			<path d="m90.78 144.9s-0.0331 0.9591 1.29 1.124c1.323 0.1654 2.117 0.1654 2.117 0.1654" style="fill-opacity:0;stroke-width:.4;stroke:#000"/>
			<path d="m137.5 191.6s-0.9591 0.0343-1.124-1.336c-0.1654-1.37-0.1654-2.192-0.1654-2.192" style="fill-opacity:0;stroke-width:.4071;stroke:#000"/>
			<path d="m141.3 187.6s0.0319-0.9591-1.245-1.124c-1.277-0.1654-2.042-0.1654-2.042-0.1654" style="fill-opacity:0;stroke-width:.3929;stroke:#000"/>
			<path d="m94.76 191.6s0.9591 0.0331 1.124-1.29c0.1654-1.323 0.1654-2.117 0.1654-2.117" style="fill-opacity:0;stroke-width:.4;stroke:#000"/>
			<path d="m90.78 187.5s-0.0331-0.9591 1.29-1.124c1.323-0.1654 2.117-0.1654 2.117-0.1654" style="fill-opacity:0;stroke-width:.4;stroke:#000"/>
			<circle cx="116" cy="166.3" r="18.94" style="fill-opacity:0;stroke-linejoin:round;stroke-width:.6074;stroke:#000"/>
			<circle cx="137.3" cy="141" r=".007764" style="fill-opacity:0;stroke-width:.2646;stroke:#000"/>
			<circle cx="137.6" cy="141" r=".007764" style="fill-opacity:0;stroke-width:.2646;stroke:#000"/>
		</g>
		<g>
			<rect x="87.42" y="137.6" width="165.2" height="165.5" rx="9.025" ry="9.035" style="fill:none;stroke-linejoin:round;stroke-width:.7;stroke:#000"/>
			<rect x="88.8" y="138.9" width="162.6" height="162.9" rx="7.972" ry="8.076" style="fill:none;stroke-linejoin:round;stroke-width:.7;stroke:#000"/>
		</g>
		<g style="fill-opacity:0">
			<rect x="144.9" y="141" width="50.56" height="50.61" rx="3.77" ry="4.134" style="fill-opacity:0;stroke-linejoin:round;stroke-width:.6;stroke:#000"/>
			<rect x="148.2" y="144.1" width="44.14" height="44.19" rx="2.465" ry="2.42" style="fill-opacity:0;stroke-linejoin:round;stroke-width:.6;stroke:#000"/>
			<rect x="146.1" y="142.2" width="48.07" height="48.03" rx="3.817" ry="4.023" style="fill-opacity:0;stroke-linejoin:round;stroke-width:.4;stroke:#000"/>
			<circle cx="191.4" cy="141" r=".007764" style="fill-opacity:0;stroke-width:.2646;stroke:#000"/>
			<circle cx="191.7" cy="141" r=".007764" style="fill-opacity:0;stroke-width:.2646;stroke:#000"/>
			<path d="m191.6 141s-0.9591-0.0315-1.124 1.229c-0.1654 1.26-0.1654 2.017-0.1654 2.017" style="fill-opacity:0;stroke-width:.3904;stroke:#000"/>
			<path d="m195.4 144.9s0.0316 0.9591-1.232 1.124c-1.264 0.1654-2.022 0.1654-2.022 0.1654" style="fill-opacity:0;stroke-width:.3909;stroke:#000"/>
			<path d="m148.8 141s0.9591-0.0321 1.124 1.25c0.1654 1.282 0.1654 2.051 0.1654 2.051" style="fill-opacity:0;stroke-width:.3938;stroke:#000"/>
			<path d="m144.9 144.9s-0.0331 0.9591 1.29 1.124c1.323 0.1654 2.117 0.1654 2.117 0.1654" style="fill-opacity:0;stroke-width:.4;stroke:#000"/>
			<path d="m191.6 191.6s-0.9591 0.0343-1.124-1.336c-0.1654-1.37-0.1654-2.192-0.1654-2.192" style="fill-opacity:0;stroke-width:.4071;stroke:#000"/>
			<path d="m195.4 187.6s0.0319-0.9591-1.245-1.124c-1.277-0.1654-2.042-0.1654-2.042-0.1654" style="fill-opacity:0;stroke-width:.3929;stroke:#000"/>
			<path d="m148.9 191.6s0.9591 0.0331 1.124-1.29c0.1654-1.323 0.1654-2.117 0.1654-2.117" style="fill-opacity:0;stroke-width:.4;stroke:#000"/>
			<path d="m144.9 187.5s-0.0331-0.9591 1.29-1.124c1.323-0.1654 2.117-0.1654 2.117-0.1654" style="fill-opacity:0;stroke-width:.4;stroke:#000"/>
			<circle cx="170.2" cy="166.3" r="18.94" style="fill-opacity:0;stroke-linejoin:round;stroke-width:.6074;stroke:#000"/>
			<circle cx="191.4" cy="141" r=".007764" style="fill-opacity:0;stroke-width:.2646;stroke:#000"/>
			<circle cx="191.7" cy="141" r=".007764" style="fill-opacity:0;stroke-width:.2646;stroke:#000"/>
		</g>
		<g style="fill-opacity:0">
			<rect x="198.9" y="141" width="50.56" height="50.61" rx="3.77" ry="4.134" style="fill-opacity:0;stroke-linejoin:round;stroke-width:.6;stroke:#000"/>
			<rect x="202.2" y="144.1" width="44.14" height="44.19" rx="2.465" ry="2.42" style="fill-opacity:0;stroke-linejoin:round;stroke-width:.6;stroke:#000"/>
			<rect x="200.1" y="142.2" width="48.07" height="48.03" rx="3.817" ry="4.023" style="fill-opacity:0;stroke-linejoin:round;stroke-width:.5;stroke:#000"/>
			<circle cx="245.4" cy="141" r=".007764" style="fill-opacity:0;stroke-width:.2646;stroke:#000"/>
			<circle cx="245.7" cy="141" r=".007764" style="fill-opacity:0;stroke-width:.2646;stroke:#000"/>
			<path d="m245.6 141s-0.9591-0.0315-1.124 1.229c-0.1654 1.26-0.1654 2.017-0.1654 2.017" style="fill-opacity:0;stroke-width:.3904;stroke:#000"/>
			<path d="m249.4 144.9s0.0316 0.9591-1.232 1.124c-1.264 0.1654-2.022 0.1654-2.022 0.1654" style="fill-opacity:0;stroke-width:.3909;stroke:#000"/>
			<path d="m202.9 141s0.9591-0.0321 1.124 1.25c0.1654 1.282 0.1654 2.051 0.1654 2.051" style="fill-opacity:0;stroke-width:.3938;stroke:#000"/>
			<path d="m198.9 144.9s-0.0331 0.9591 1.29 1.124c1.323 0.1654 2.117 0.1654 2.117 0.1654" style="fill-opacity:0;stroke-width:.4;stroke:#000"/>
			<path d="m245.6 191.6s-0.9591 0.0343-1.124-1.336c-0.1654-1.37-0.1654-2.192-0.1654-2.192" style="fill-opacity:0;stroke-width:.4071;stroke:#000"/>
			<path d="m249.4 187.6s0.0319-0.9591-1.245-1.124c-1.277-0.1654-2.042-0.1654-2.042-0.1654" style="fill-opacity:0;stroke-width:.3929;stroke:#000"/>
			<path d="m202.9 191.6s0.9591 0.0331 1.124-1.29c0.1654-1.323 0.1654-2.117 0.1654-2.117" style="fill-opacity:0;stroke-width:.4;stroke:#000"/>
			<path d="m198.9 187.5s-0.0331-0.9591 1.29-1.124c1.323-0.1654 2.117-0.1654 2.117-0.1654" style="fill-opacity:0;stroke-width:.4;stroke:#000"/>
			<circle cx="224.2" cy="166.3" r="18.94" style="fill-opacity:0;stroke-linejoin:round;stroke-width:.6074;stroke:#000"/>
			<circle cx="245.4" cy="141" r=".007764" style="fill-opacity:0;stroke-width:.2646;stroke:#000"/>
			<circle cx="245.7" cy="141" r=".007764" style="fill-opacity:0;stroke-width:.2646;stroke:#000"/>
		</g>
		<g style="fill-opacity:0">
			<rect x="90.74" y="195.1" width="50.56" height="50.61" rx="3.77" ry="4.134" style="fill-opacity:0;stroke-linejoin:round;stroke-width:.6;stroke:#000"/>
			<rect x="94.11" y="198.2" width="44.14" height="44.19" rx="2.465" ry="2.42" style="fill-opacity:0;stroke-linejoin:round;stroke-width:.6;stroke:#000"/>
			<rect x="91.94" y="196.3" width="48.07" height="48.03" rx="3.817" ry="4.023" style="fill-opacity:0;stroke-linejoin:round;stroke-width:.4;stroke:#000"/>
			<circle cx="137.3" cy="195" r=".007764" style="fill-opacity:0;stroke-width:.2646;stroke:#000"/>
			<circle cx="137.6" cy="195.1" r=".007764" style="fill-opacity:0;stroke-width:.2646;stroke:#000"/>
			<path d="m137.5 195.1s-0.9591-0.0315-1.124 1.229c-0.1654 1.26-0.1654 2.017-0.1654 2.017" style="fill-opacity:0;stroke-width:.3904;stroke:#000"/>
			<path d="m141.3 199s0.0316 0.9591-1.232 1.124c-1.264 0.1654-2.022 0.1654-2.022 0.1654" style="fill-opacity:0;stroke-width:.3909;stroke:#000"/>
			<path d="m94.73 195.1s0.9591-0.0321 1.124 1.25c0.1654 1.282 0.1654 2.051 0.1654 2.051" style="fill-opacity:0;stroke-width:.3938;stroke:#000"/>
			<path d="m90.78 199s-0.0331 0.9591 1.29 1.124c1.323 0.1654 2.117 0.1654 2.117 0.1654" style="fill-opacity:0;stroke-width:.4;stroke:#000"/>
			<path d="m137.5 245.7s-0.9591 0.0343-1.124-1.336c-0.1654-1.37-0.1654-2.192-0.1654-2.192" style="fill-opacity:0;stroke-width:.4071;stroke:#000"/>
			<path d="m141.3 241.7s0.0319-0.9591-1.245-1.124c-1.277-0.1654-2.042-0.1654-2.042-0.1654" style="fill-opacity:0;stroke-width:.3929;stroke:#000"/>
			<path d="m94.76 245.6s0.9591 0.0331 1.124-1.29c0.1654-1.323 0.1654-2.117 0.1654-2.117" style="fill-opacity:0;stroke-width:.4;stroke:#000"/>
			<path d="m90.78 241.6s-0.0331-0.9591 1.29-1.124c1.323-0.1654 2.117-0.1654 2.117-0.1654" style="fill-opacity:0;stroke-width:.4;stroke:#000"/>
			<circle cx="116" cy="220.4" r="18.94" style="fill-opacity:0;stroke-linejoin:round;stroke-width:.6074;stroke:#000"/>
			<circle cx="137.3" cy="195" r=".007764" style="fill-opacity:0;stroke-width:.2646;stroke:#000"/>
			<circle cx="137.6" cy="195.1" r=".007764" style="fill-opacity:0;stroke-width:.2646;stroke:#000"/>
		</g>
		<g style="fill-opacity:0">
			<rect x="144.9" y="195.1" width="50.56" height="50.61" rx="3.77" ry="4.134" style="fill-opacity:0;stroke-linejoin:round;stroke-width:.6;stroke:#000"/>
			<rect x="148.2" y="198.2" width="44.14" height="44.19" rx="2.465" ry="2.42" style="fill-opacity:0;stroke-linejoin:round;stroke-width:.6;stroke:#000"/>
			<rect x="146.1" y="196.3" width="48.07" height="48.03" rx="3.817" ry="4.023" style="fill-opacity:0;stroke-linejoin:round;stroke-width:.4;stroke:#000"/>
			<circle cx="191.4" cy="195" r=".007764" style="fill-opacity:0;stroke-width:.2646;stroke:#000"/>
			<circle cx="191.7" cy="195.1" r=".007764" style="fill-opacity:0;stroke-width:.2646;stroke:#000"/>
			<path d="m191.6 195.1s-0.9591-0.0315-1.124 1.229c-0.1654 1.26-0.1654 2.017-0.1654 2.017" style="fill-opacity:0;stroke-width:.3904;stroke:#000"/>
			<path d="m195.4 199s0.0316 0.9591-1.232 1.124c-1.264 0.1654-2.022 0.1654-2.022 0.1654" style="fill-opacity:0;stroke-width:.3909;stroke:#000"/>
			<path d="m148.8 195.1s0.9591-0.0321 1.124 1.25c0.1654 1.282 0.1654 2.051 0.1654 2.051" style="fill-opacity:0;stroke-width:.3938;stroke:#000"/>
			<path d="m144.9 199s-0.0331 0.9591 1.29 1.124c1.323 0.1654 2.117 0.1654 2.117 0.1654" style="fill-opacity:0;stroke-width:.4;stroke:#000"/>
			<path d="m191.6 245.7s-0.9591 0.0343-1.124-1.336c-0.1654-1.37-0.1654-2.192-0.1654-2.192" style="fill-opacity:0;stroke-width:.4071;stroke:#000"/>
			<path d="m195.4 241.7s0.0319-0.9591-1.245-1.124c-1.277-0.1654-2.042-0.1654-2.042-0.1654" style="fill-opacity:0;stroke-width:.3929;stroke:#000"/>
			<path d="m148.9 245.6s0.9591 0.0331 1.124-1.29c0.1654-1.323 0.1654-2.117 0.1654-2.117" style="fill-opacity:0;stroke-width:.4;stroke:#000"/>
			<path d="m144.9 241.6s-0.0331-0.9591 1.29-1.124c1.323-0.1654 2.117-0.1654 2.117-0.1654" style="fill-opacity:0;stroke-width:.4;stroke:#000"/>
			<circle cx="170.2" cy="220.4" r="18.94" style="fill-opacity:0;stroke-linejoin:round;stroke-width:.6074;stroke:#000"/>
			<circle cx="191.4" cy="195" r=".007764" style="fill-opacity:0;stroke-width:.2646;stroke:#000"/>
			<circle cx="191.7" cy="195.1" r=".007764" style="fill-opacity:0;stroke-width:.2646;stroke:#000"/>
		</g>
		<g style="fill-opacity:0">
			<rect x="198.9" y="195.1" width="50.56" height="50.61" rx="3.77" ry="4.134" style="fill-opacity:0;stroke-linejoin:round;stroke-width:.6;stroke:#000"/>
			<rect x="202.2" y="198.2" width="44.14" height="44.19" rx="2.465" ry="2.42" style="fill-opacity:0;stroke-linejoin:round;stroke-width:.6;stroke:#000"/>
			<rect x="200.1" y="196.3" width="48.07" height="48.03" rx="3.817" ry="4.023" style="fill-opacity:0;stroke-linejoin:round;stroke-width:.4;stroke:#000"/>
			<circle cx="245.4" cy="195" r=".007764" style="fill-opacity:0;stroke-width:.2646;stroke:#000"/>
			<circle cx="245.7" cy="195.1" r=".007764" style="fill-opacity:0;stroke-width:.2646;stroke:#000"/>
			<path d="m245.6 195.1s-0.9591-0.0315-1.124 1.229c-0.1654 1.26-0.1654 2.017-0.1654 2.017" style="fill-opacity:0;stroke-width:.3904;stroke:#000"/>
			<path d="m249.4 199s0.0316 0.9591-1.232 1.124c-1.264 0.1654-2.022 0.1654-2.022 0.1654" style="fill-opacity:0;stroke-width:.3909;stroke:#000"/>
			<path d="m202.9 195.1s0.9591-0.0321 1.124 1.25c0.1654 1.282 0.1654 2.051 0.1654 2.051" style="fill-opacity:0;stroke-width:.3938;stroke:#000"/>
			<path d="m198.9 199s-0.0331 0.9591 1.29 1.124c1.323 0.1654 2.117 0.1654 2.117 0.1654" style="fill-opacity:0;stroke-width:.4;stroke:#000"/>
			<path d="m245.6 245.7s-0.9591 0.0343-1.124-1.336c-0.1654-1.37-0.1654-2.192-0.1654-2.192" style="fill-opacity:0;stroke-width:.4071;stroke:#000"/>
			<path d="m249.4 241.7s0.0319-0.9591-1.245-1.124c-1.277-0.1654-2.042-0.1654-2.042-0.1654" style="fill-opacity:0;stroke-width:.3929;stroke:#000"/>
			<path d="m202.9 245.6s0.9591 0.0331 1.124-1.29c0.1654-1.323 0.1654-2.117 0.1654-2.117" style="fill-opacity:0;stroke-width:.4;stroke:#000"/>
			<path d="m198.9 241.6s-0.0331-0.9591 1.29-1.124c1.323-0.1654 2.117-0.1654 2.117-0.1654" style="fill-opacity:0;stroke-width:.4;stroke:#000"/>
			<circle cx="224.2" cy="220.4" r="18.94" style="fill-opacity:0;stroke-linejoin:round;stroke-width:.6074;stroke:#000"/>
			<circle cx="245.4" cy="195" r=".007764" style="fill-opacity:0;stroke-width:.2646;stroke:#000"/>
			<circle cx="245.7" cy="195.1" r=".007764" style="fill-opacity:0;stroke-width:.2646;stroke:#000"/>
		</g>
		<g style="fill-opacity:0">
			<rect x="90.74" y="249.2" width="50.56" height="50.61" rx="3.77" ry="4.134" style="fill-opacity:0;stroke-linejoin:round;stroke-width:.6;stroke:#000"/>
			<rect x="94.11" y="252.3" width="44.14" height="44.19" rx="2.465" ry="2.42" style="fill-opacity:0;stroke-linejoin:round;stroke-width:.6;stroke:#000"/>
			<rect x="91.94" y="250.4" width="48.07" height="48.03" rx="3.817" ry="4.023" style="fill-opacity:0;stroke-linejoin:round;stroke-width:.4;stroke:#000"/>
			<circle cx="137.3" cy="249.2" r=".007764" style="fill-opacity:0;stroke-width:.2646;stroke:#000"/>
			<circle cx="137.6" cy="249.3" r=".007764" style="fill-opacity:0;stroke-width:.2646;stroke:#000"/>
			<path d="m137.5 249.2s-0.9591-0.0315-1.124 1.229c-0.1654 1.26-0.1654 2.017-0.1654 2.017" style="fill-opacity:0;stroke-width:.3904;stroke:#000"/>
			<path d="m141.3 253.1s0.0316 0.9591-1.232 1.124c-1.264 0.1654-2.022 0.1654-2.022 0.1654" style="fill-opacity:0;stroke-width:.3909;stroke:#000"/>
			<path d="m94.73 249.2s0.9591-0.0321 1.124 1.25c0.1654 1.282 0.1654 2.051 0.1654 2.051" style="fill-opacity:0;stroke-width:.3938;stroke:#000"/>
			<path d="m90.78 253.1s-0.0331 0.9591 1.29 1.124c1.323 0.1654 2.117 0.1654 2.117 0.1654" style="fill-opacity:0;stroke-width:.4;stroke:#000"/>
			<path d="m137.5 299.8s-0.9591 0.0343-1.124-1.336c-0.1654-1.37-0.1654-2.192-0.1654-2.192" style="fill-opacity:0;stroke-width:.4071;stroke:#000"/>
			<path d="m141.3 295.9s0.0319-0.9591-1.245-1.124c-1.277-0.1654-2.042-0.1654-2.042-0.1654" style="fill-opacity:0;stroke-width:.3929;stroke:#000"/>
			<path d="m94.76 299.8s0.9591 0.0331 1.124-1.29c0.1654-1.323 0.1654-2.117 0.1654-2.117" style="fill-opacity:0;stroke-width:.4;stroke:#000"/>
			<path d="m90.78 295.8s-0.0331-0.9591 1.29-1.124c1.323-0.1654 2.117-0.1654 2.117-0.1654" style="fill-opacity:0;stroke-width:.4;stroke:#000"/>
			<circle cx="116" cy="274.5" r="18.94" style="fill-opacity:0;stroke-linejoin:round;stroke-width:.6074;stroke:#000"/>
			<circle cx="137.3" cy="249.2" r=".007764" style="fill-opacity:0;stroke-width:.2646;stroke:#000"/>
			<circle cx="137.6" cy="249.3" r=".007764" style="fill-opacity:0;stroke-width:.2646;stroke:#000"/>
		</g>
		<g style="fill-opacity:0">
			<rect x="144.9" y="249.2" width="50.56" height="50.61" rx="3.77" ry="4.134" style="fill-opacity:0;stroke-linejoin:round;stroke-width:.6;stroke:#000"/>
			<rect x="148.2" y="252.3" width="44.14" height="44.19" rx="2.465" ry="2.42" style="fill-opacity:0;stroke-linejoin:round;stroke-width:.6;stroke:#000"/>
			<rect x="146.1" y="250.4" width="48.07" height="48.03" rx="3.817" ry="4.023" style="fill-opacity:0;stroke-linejoin:round;stroke-width:.4;stroke:#000"/>
			<circle cx="191.4" cy="249.2" r=".007764" style="fill-opacity:0;stroke-width:.2646;stroke:#000"/>
			<circle cx="191.7" cy="249.3" r=".007764" style="fill-opacity:0;stroke-width:.2646;stroke:#000"/>
			<path d="m191.6 249.2s-0.9591-0.0315-1.124 1.229c-0.1654 1.26-0.1654 2.017-0.1654 2.017" style="fill-opacity:0;stroke-width:.3904;stroke:#000"/>
			<path d="m195.4 253.1s0.0316 0.9591-1.232 1.124c-1.264 0.1654-2.022 0.1654-2.022 0.1654" style="fill-opacity:0;stroke-width:.3909;stroke:#000"/>
			<path d="m148.8 249.2s0.9591-0.0321 1.124 1.25c0.1654 1.282 0.1654 2.051 0.1654 2.051" style="fill-opacity:0;stroke-width:.3938;stroke:#000"/>
			<path d="m144.9 253.1s-0.0331 0.9591 1.29 1.124c1.323 0.1654 2.117 0.1654 2.117 0.1654" style="fill-opacity:0;stroke-width:.4;stroke:#000"/>
			<path d="m191.6 299.8s-0.9591 0.0343-1.124-1.336c-0.1654-1.37-0.1654-2.192-0.1654-2.192" style="fill-opacity:0;stroke-width:.4071;stroke:#000"/>
			<path d="m195.4 295.9s0.0319-0.9591-1.245-1.124c-1.277-0.1654-2.042-0.1654-2.042-0.1654" style="fill-opacity:0;stroke-width:.3929;stroke:#000"/>
			<path d="m148.9 299.8s0.9591 0.0331 1.124-1.29c0.1654-1.323 0.1654-2.117 0.1654-2.117" style="fill-opacity:0;stroke-width:.4;stroke:#000"/>
			<path d="m144.9 295.8s-0.0331-0.9591 1.29-1.124c1.323-0.1654 2.117-0.1654 2.117-0.1654" style="fill-opacity:0;stroke-width:.4;stroke:#000"/>
			<circle cx="170.2" cy="274.5" r="18.94" style="fill-opacity:0;stroke-linejoin:round;stroke-width:.6074;stroke:#000"/>
			<circle cx="191.4" cy="249.2" r=".007764" style="fill-opacity:0;stroke-width:.2646;stroke:#000"/>
			<circle cx="191.7" cy="249.3" r=".007764" style="fill-opacity:0;stroke-width:.2646;stroke:#000"/>
		</g>
		<g style="fill-opacity:0">
			<rect x="198.9" y="249.2" width="50.56" height="50.61" rx="3.77" ry="4.134" style="fill-opacity:0;stroke-linejoin:round;stroke-width:.6;stroke:#000"/>
			<rect x="202.2" y="252.3" width="44.14" height="44.19" rx="2.465" ry="2.42" style="fill-opacity:0;stroke-linejoin:round;stroke-width:.6;stroke:#000"/>
			<rect x="200.1" y="250.4" width="48.07" height="48.03" rx="3.817" ry="4.023" style="fill-opacity:0;stroke-linejoin:round;stroke-width:.4;stroke:#000"/>
			<circle cx="245.4" cy="249.2" r=".007764" style="fill-opacity:0;stroke-width:.2646;stroke:#000"/>
			<circle cx="245.7" cy="249.3" r=".007764" style="fill-opacity:0;stroke-width:.2646;stroke:#000"/>
			<path d="m245.6 249.2s-0.9591-0.0315-1.124 1.229c-0.1654 1.26-0.1654 2.017-0.1654 2.017" style="fill-opacity:0;stroke-width:.3904;stroke:#000"/>
			<path d="m249.4 253.1s0.0316 0.9591-1.232 1.124c-1.264 0.1654-2.022 0.1654-2.022 0.1654" style="fill-opacity:0;stroke-width:.3909;stroke:#000"/>
			<path d="m202.9 249.2s0.9591-0.0321 1.124 1.25c0.1654 1.282 0.1654 2.051 0.1654 2.051" style="fill-opacity:0;stroke-width:.3938;stroke:#000"/>
			<path d="m198.9 253.1s-0.0331 0.9591 1.29 1.124c1.323 0.1654 2.117 0.1654 2.117 0.1654" style="fill-opacity:0;stroke-width:.4;stroke:#000"/>
			<path d="m245.6 299.8s-0.9591 0.0343-1.124-1.336c-0.1654-1.37-0.1654-2.192-0.1654-2.192" style="fill-opacity:0;stroke-width:.4071;stroke:#000"/>
			<path d="m249.4 295.9s0.0319-0.9591-1.245-1.124c-1.277-0.1654-2.042-0.1654-2.042-0.1654" style="fill-opacity:0;stroke-width:.3929;stroke:#000"/>
			<path d="m202.9 299.8s0.9591 0.0331 1.124-1.29c0.1654-1.323 0.1654-2.117 0.1654-2.117" style="fill-opacity:0;stroke-width:.4;stroke:#000"/>
			<path d="m198.9 295.8s-0.0331-0.9591 1.29-1.124c1.323-0.1654 2.117-0.1654 2.117-0.1654" style="fill-opacity:0;stroke-width:.4;stroke:#000"/>
			<circle cx="224.2" cy="274.5" r="18.94" style="fill-opacity:0;stroke-linejoin:round;stroke-width:.6074;stroke:#000"/>
			<circle cx="245.4" cy="249.2" r=".007764" style="fill-opacity:0;stroke-width:.2646;stroke:#000"/>
			<circle cx="245.7" cy="249.3" r=".007764" style="fill-opacity:0;stroke-width:.2646;stroke:#000"/>
		</g>
		<g>
			<rect x="75.14" y="25.14" width="190.5" height="289.7" rx="23.02" ry="23.02" style="fill:none;mix-blend-mode:normal;opacity:.999;stroke-linejoin:round;stroke:#000"/>
			<path d="m96.72 30.16c-5.966 0.2452-11.61 3.862-14.41 9.123-1.707 3.058-2.318 6.608-2.17 10.08 0.0035 80.99-7e-3 162 0.0053 243 0.0051 6.154 3.459 12.18 8.829 15.21 3.01 1.782 6.559 2.457 10.03 2.304 48.07-5e-3 96.14 0.0107 144.2-8e-3 5.879-0.0404 11.56-3.364 14.56-8.403 1.958-3.159 2.754-6.927 2.592-10.62-5e-3 -81.09 0.01-162.2-7e-3 -243.3-0.0331-6.189-3.568-12.22-9-15.21-2.946-1.689-6.383-2.348-9.755-2.203-48.11 0.0054-96.21-0.01074-144.3 0.0081-0.1911 0.0051-0.3821 0.01026-0.5732 0.01539z" style="fill:none;stroke-linejoin:round;stroke-width:.8;stroke:#000"/>
			<path d="m241.7 31.73c-48.34 2e-3 -96.67-0.0099-145 0.03569-6.683 0.304-12.78 5.391-14.36 11.88-0.9114 3.571-0.4443 7.282-0.5524 10.92 0.0018 79.47-0.0079 158.9 0.02805 238.4 0.2405 6.612 4.991 12.85 11.4 14.64 3.545 1.025 7.277 0.5308 10.91 0.6368 46.62 2e-3 93.24 0.0177 139.9-0.0312 4.988-0.2528 9.855-3.242 12.48-7.553 1.634-2.61 2.348-5.681 2.392-8.706-0.0228-39.11-4e-3 -78.23-0.01-117.3-9e-3 -42.55-7e-3 -85.09-0.027-127.6-0.2247-5.799-3.938-11.41-9.284-13.83-2.416-1.08-5.129-1.551-7.818-1.423z" style="fill:none;stroke-linejoin:round;stroke-width:.8;stroke:#000"/>
			<path d="m242.8 31.76v-6.455" style="fill:none;stroke-width:.6;stroke:#000"/>
			<path d="m258.7 47.61h7.063" style="fill:none;stroke-width:.6;stroke:#000"/>
			<path d="m97.5 31.75v-6.548" style="fill:none;stroke-width:.6;stroke:#000"/>
			<path d="m75.17 47.66h6.548" style="fill:none;stroke-width:.6;stroke:#000"/>
			<path d="m242.8 308.4v6.455" style="fill:none;stroke-width:.6;stroke:#000"/>
			<path d="m258.7 292.6h7.063" style="fill:none;stroke-width:.6;stroke:#000"/>
			<path d="m97.72 308.3v6.455" style="fill:none;stroke-width:.6;stroke:#000"/>
			<path d="m81.87 292.4h-7.063" style="fill:none;stroke-width:.6;stroke:#000"/>
		</g>
	</g>
</svg>
